<svg id="Groupe_305" data-name="Groupe 305" xmlns="http://www.w3.org/2000/svg" xmlns:xlink="http://www.w3.org/1999/xlink" width="155.657" height="74.063" viewBox="0 0 155.657 74.063">
  <defs>
    <linearGradient id="linear-gradient" x1="1.414" y1="0.5" x2="0" y2="0.5" gradientUnits="objectBoundingBox">
      <stop offset="0" stop-color="#fd7740"/>
      <stop offset="0.118" stop-color="#fc5d42"/>
      <stop offset="0.241" stop-color="#f24c69"/>
      <stop offset="0.345" stop-color="#d93fa7"/>
      <stop offset="0.483" stop-color="#9245c3"/>
      <stop offset="0.626" stop-color="#8846c6"/>
      <stop offset="0.709" stop-color="#5b57d7"/>
      <stop offset="0.837" stop-color="#3684eb"/>
      <stop offset="1" stop-color="#1daff4"/>
    </linearGradient>
    <clipPath id="clip-path">
      <path id="Tracé_180" data-name="Tracé 180" d="M134.587,73.794h2.222V71.571h-2.222Zm-62.036,0H74.72v-9.72H72.551Zm31.436-9.762a3.858,3.858,0,0,0-.9.172,3.115,3.115,0,0,0-.8.382,2.642,2.642,0,0,0-.725.661,3.611,3.611,0,0,0-.247.386V64.074H99.406v9.72h2.178V68.852a3.8,3.8,0,0,1,.136-1.039,2.571,2.571,0,0,1,.417-.859,2.23,2.23,0,0,1,.734-.621,2.306,2.306,0,0,1,1.012-.316,2.787,2.787,0,0,1,.995.081V64.074a3.744,3.744,0,0,0-.621-.051q-.134,0-.27.009M33.874,71.188a3.619,3.619,0,0,1-.644-2.255,4.459,4.459,0,0,1,.27-1.615,2.294,2.294,0,0,1,.833-1.089,2.457,2.457,0,0,1,1.436-.392,2.258,2.258,0,0,1,1.917.842,3.644,3.644,0,0,1,.638,2.254,3.7,3.7,0,0,1-.63,2.233,2.565,2.565,0,0,1-3.82.022m-.625-6.736a4.5,4.5,0,0,0-1.7,1.8,5.629,5.629,0,0,0-.611,2.681,5.716,5.716,0,0,0,.6,2.66,4.477,4.477,0,0,0,1.688,1.814,5.287,5.287,0,0,0,5.094,0,4.5,4.5,0,0,0,1.7-1.809,6.165,6.165,0,0,0,0-5.329,4.508,4.508,0,0,0-1.692-1.812,5.253,5.253,0,0,0-5.075-.009m10.259-.285a3.044,3.044,0,0,0-1.332,1.041,2.672,2.672,0,0,0-.477,1.584,2.329,2.329,0,0,0,.315,1.242,2.53,2.53,0,0,0,1.035.886,9.679,9.679,0,0,0,1.944.7q1.1.287,1.629.476a1.557,1.557,0,0,1,.688.392.841.841,0,0,1,.158.535.994.994,0,0,1-.428.851,2.032,2.032,0,0,1-1.21.31,2.491,2.491,0,0,1-1.476-.414,1.861,1.861,0,0,1-.756-1.134l-2.214.342a3.359,3.359,0,0,0,1.368,2.277,4.882,4.882,0,0,0,2.925.81,4.655,4.655,0,0,0,2.947-.837,2.765,2.765,0,0,0,1.067-2.3,2.279,2.279,0,0,0-1.319-2.2,8.147,8.147,0,0,0-1.858-.679c-.756-.193-1.325-.354-1.706-.487a2.022,2.022,0,0,1-.76-.395.668.668,0,0,1-.189-.478.853.853,0,0,1,.468-.77,2.178,2.178,0,0,1,1.233-.229,2.323,2.323,0,0,1,1.282.4,1.4,1.4,0,0,1,.563.982l2.214-.4a3,3,0,0,0-.666-1.52,3.474,3.474,0,0,0-1.418-1,5.361,5.361,0,0,0-2.011-.352,5.129,5.129,0,0,0-2.016.364m47.916,2.358A2.364,2.364,0,0,1,93.4,65.7a2.027,2.027,0,0,1,1.729.728,3.089,3.089,0,0,1,.5,1.468H90.87a3.071,3.071,0,0,1,.554-1.374m-.63-2.073a4.467,4.467,0,0,0-1.7,1.821,5.906,5.906,0,0,0-.613,2.769,5.307,5.307,0,0,0,.626,2.61,4.518,4.518,0,0,0,1.742,1.772,5.118,5.118,0,0,0,2.591.639,4.745,4.745,0,0,0,2.569-.728,4.35,4.35,0,0,0,1.724-2.043l-2.141-.649a2.338,2.338,0,0,1-.9,1.031,2.6,2.6,0,0,1-1.382.356,2.274,2.274,0,0,1-1.889-.811,3.17,3.17,0,0,1-.614-1.682h7.031a6.821,6.821,0,0,0-.388-3.034,4.182,4.182,0,0,0-1.571-1.993,4.516,4.516,0,0,0-2.569-.707,4.818,4.818,0,0,0-2.519.649m17.567,2.073a2.367,2.367,0,0,1,1.98-.822,2.025,2.025,0,0,1,1.728.728,3.079,3.079,0,0,1,.5,1.468h-4.763a3.083,3.083,0,0,1,.554-1.374m-.63-2.073a4.473,4.473,0,0,0-1.7,1.821,5.918,5.918,0,0,0-.612,2.769,5.318,5.318,0,0,0,.625,2.61,4.524,4.524,0,0,0,1.742,1.772,5.122,5.122,0,0,0,2.592.639,4.747,4.747,0,0,0,2.569-.728,4.361,4.361,0,0,0,1.724-2.043l-2.142-.649a2.325,2.325,0,0,1-.9,1.031,2.592,2.592,0,0,1-1.381.356,2.278,2.278,0,0,1-1.89-.811,3.169,3.169,0,0,1-.613-1.682h7.03a6.793,6.793,0,0,0-.388-3.034,4.18,4.18,0,0,0-1.57-1.993,4.518,4.518,0,0,0-2.569-.707,4.825,4.825,0,0,0-2.52.649m11.132-.059a3.862,3.862,0,0,0-.873.768V64.074h-1.935v9.72h2.2v-5a4.515,4.515,0,0,1,.2-1.462,2.328,2.328,0,0,1,.526-.9,1.873,1.873,0,0,1,.734-.464,2.569,2.569,0,0,1,.818-.135,2.043,2.043,0,0,1,1.229.333,2.083,2.083,0,0,1,.684.851,3.613,3.613,0,0,1,.292,1.075,9.164,9.164,0,0,1,.064,1.018v4.68h2.2V68.367c0-.235-.02-.539-.059-.915a6.087,6.087,0,0,0-.256-1.192,4.006,4.006,0,0,0-.613-1.187,3.114,3.114,0,0,0-1.115-.918,3.9,3.9,0,0,0-1.782-.361,4.194,4.194,0,0,0-2.305.6M51.9,61.374v2.7H50.141v1.7H51.9v4.05c0,.552.005,1.047.018,1.484a2.882,2.882,0,0,0,.351,1.287,2.261,2.261,0,0,0,1.107,1.013,4.326,4.326,0,0,0,1.651.341,8.916,8.916,0,0,0,1.886-.156V71.975a6.9,6.9,0,0,1-1.62.072,1.255,1.255,0,0,1-1.035-.6,1.442,1.442,0,0,1-.185-.721q-.013-.439-.013-1.025V65.775h2.853v-1.7H54.065v-2.7Zm75.661,0v2.7H125.8v1.7h1.763v4.05q0,.828.018,1.484a2.908,2.908,0,0,0,.351,1.287,2.261,2.261,0,0,0,1.107,1.013,4.326,4.326,0,0,0,1.651.341,8.911,8.911,0,0,0,1.886-.156V71.975a6.9,6.9,0,0,1-1.62.072,1.255,1.255,0,0,1-1.035-.6,1.463,1.463,0,0,1-.184-.721c-.01-.293-.014-.635-.014-1.025V65.775h2.853v-1.7h-2.853v-2.7Zm-100.321-.54v5.454H21.107V60.834H18.938v12.96h2.169V68.322h6.138v5.472h2.16V60.834ZM64.55,71.7a2.5,2.5,0,0,1-.815-1.148,4.666,4.666,0,0,1-.265-1.616,4.567,4.567,0,0,1,.27-1.606,2.5,2.5,0,0,1,.837-1.152,2.325,2.325,0,0,1,1.44-.427,2.156,2.156,0,0,1,1.35.4,2.312,2.312,0,0,1,.769,1.116,5.727,5.727,0,0,1,0,3.334,2.263,2.263,0,0,1-.783,1.121,2.294,2.294,0,0,1-1.408.4A2.219,2.219,0,0,1,64.55,71.7m3.564-10.863v3.719c-.033-.026-.061-.055-.1-.079a3.9,3.9,0,0,0-2.326-.671,4.25,4.25,0,0,0-2.394.671A4.433,4.433,0,0,0,61.728,66.3a6.531,6.531,0,0,0,0,5.251,4.454,4.454,0,0,0,1.548,1.836,4.472,4.472,0,0,0,4.725,0,3.937,3.937,0,0,0,.387-.315v.721H70.3V60.834ZM72.551,62.6H74.72V60.609H72.551Zm14.624-2.034c-.234,0-.508.008-.819.023a3.226,3.226,0,0,0-.95.2,2.253,2.253,0,0,0-.895.635,1.962,1.962,0,0,0-.459.8,4.071,4.071,0,0,0-.153.887c-.018.3-.027.568-.027.814v.154H79.984v-.621a1.12,1.12,0,0,1,.3-.815,1.23,1.23,0,0,1,.922-.31h1.125V60.563H81.118q-.351,0-.819.023a3.232,3.232,0,0,0-.95.2,2.253,2.253,0,0,0-.895.635,1.948,1.948,0,0,0-.458.8,4.073,4.073,0,0,0-.154.887c-.017.3-.027.568-.027.814v.154H76.249v1.7h1.566v8.019h2.169V65.775h3.888v8.019h2.169V65.775h2.35v-1.7h-2.35v-.621a1.123,1.123,0,0,1,.3-.815,1.237,1.237,0,0,1,.924-.31h1.125V60.563Zm56.643-58.02A5.887,5.887,0,0,0,142.2,6.919c.17,4.517.252,9.043.252,13.453,0,5.167-.094,10.437-.186,15.565L142.2,39.82v.1a6.741,6.741,0,0,0,13.46,0V39.8c-.1-6.119-.153-12.751-.153-19.178,0-4.957.051-9.765.153-13.942v-.1c0-3.518-2.871-6.17-6.679-6.17a7.365,7.365,0,0,0-5.16,2.134M6.87.3c-.094,0-.188,0-.28.007A6.664,6.664,0,0,0,1.733,2.256,6.223,6.223,0,0,0,0,6.539v.052c0,.078,0,.156,0,.234.1,3.721.153,9,.153,14.867C.158,28.262.1,34.97,0,40.124v.093c0,3.488,2.851,6.118,6.628,6.118,3.749,0,6.577-2.609,6.577-6.085v-.244c-.1-2.262-.1-4.517-.1-6.508,0-1.9.016-3.437.034-4.566,3.494-.044,8.7-.052,12.223-.006.018,1.12.036,2.678.036,4.572,0,2.029-.049,4.339-.1,6.572v.2c0,3.413,2.735,5.985,6.533,6.118h.1c3.778,0,6.626-2.652,6.626-6.179v-.13c-.093-4-.152-10.965-.152-18.642,0-5.754.058-11.1.153-14.709v-.1A6.344,6.344,0,0,0,32.2.3q-.134,0-.267.006a6.823,6.823,0,0,0-4.89,2,6.169,6.169,0,0,0-1.737,4.516c.05,1.979.1,4.024.1,5.812,0,1.444-.014,2.655-.03,3.589-1.884.013-4.259.013-6.574.013-2,0-4.047,0-5.656-.01-.016-.955-.03-2.189-.03-3.644,0-1.711.049-3.75.1-5.722V6.627A6.339,6.339,0,0,0,6.878.3H6.87M57.244,23.427c0-6.477,4-10.829,9.962-10.829s9.964,4.354,9.964,10.829c0,6.413-4.009,10.724-9.969,10.724l.005,0c-5.959,0-9.962-4.312-9.962-10.728M67.206,0C53.94,0,43.935,10.074,43.935,23.428c0,13.572,9.788,23.423,23.271,23.423,13.512,0,23.321-9.851,23.321-23.423C90.524,10.067,80.5,0,67.2,0Zm41.558,33.954c-.144-1.848-.226-5.015-.226-8.709,0-4.911.119-9.84.245-12.351.354-.03.9-.057,1.728-.057,1.448,0,3.11.031,3.976.049h.1c5.582,0,9.049,3.994,9.049,10.422-.008,9.945-5.386,10.732-12.415,10.732h0c-1.287,0-2.031-.042-2.459-.087M111.223,0c-5.9,0-14.805,0-15.429,10.648-.149,2.714-.308,8.7-.308,14.454,0,4.222.1,8.489.262,11.153.757,10.59,11.449,10.59,15.476,10.59,2.93,0,9.029,0,14.7-2.9,7.338-3.756,11.06-10.694,11.06-20.621,0-13.245-8.5-22.361-21.651-23.214C114.512.053,112.922,0,111.223,0Z" stroke="rgba(0,0,0,0)" stroke-width="1" fill="url(#linear-gradient)"/>
    </clipPath>
  </defs>
  <g id="Groupe_304" data-name="Groupe 304" clip-path="url(#clip-path)">
    <rect id="Rectangle_1498" data-name="Rectangle 1498" width="155.657" height="74.063" stroke="rgba(0,0,0,0)" stroke-width="1" fill="url(#linear-gradient)"/>
  </g>
</svg>
